HIERARCHY
ROOT Hips
{
	OFFSET 0.000000 0.000000 0.000000
	CHANNELS 6 Xposition Yposition Zposition Zrotation Yrotation Xrotation 
	JOINT LHipJoint
	{
		OFFSET 0.000000 0.000000 0.000000
		CHANNELS 3 Zrotation Yrotation Xrotation
		JOINT LeftUpLeg
		{
			OFFSET 1.363060 -1.794630 0.839290
			CHANNELS 3 Zrotation Yrotation Xrotation
			JOINT LeftLeg
			{
				OFFSET 2.448110 -6.726130 0.000000
				CHANNELS 3 Zrotation Yrotation Xrotation
				JOINT LeftFoot
				{
					OFFSET 2.562200 -7.039590 0.000000
					CHANNELS 3 Zrotation Yrotation Xrotation
					JOINT LeftToeBase
					{
						OFFSET 0.157640 -0.433110 2.322550
						CHANNELS 3 Zrotation Yrotation Xrotation
						End Site
						{
							OFFSET 0.000000 0.000000 0.000000
						}
					}
				}
			}
		}
	}
	JOINT RHipJoint
	{
		OFFSET 0.000000 0.000000 0.000000
		CHANNELS 3 Zrotation Yrotation Xrotation
		JOINT RightUpLeg
		{
			OFFSET -1.305520 -1.794630 0.839290
			CHANNELS 3 Zrotation Yrotation Xrotation
			JOINT RightLeg
			{
				OFFSET -2.542530 -6.985550 0.000000
				CHANNELS 3 Zrotation Yrotation Xrotation
				JOINT RightFoot
				{
					OFFSET -2.568260 -7.056230 0.000000
					CHANNELS 3 Zrotation Yrotation Xrotation
					JOINT RightToeBase
					{
						OFFSET -0.164730 -0.452590 2.363150
						CHANNELS 3 Zrotation Yrotation Xrotation
						End Site
						{
							OFFSET 0.000000 0.000000 0.000000
						}
					}
				}
			}
		}
	}
	JOINT LowerBack
	{
		OFFSET 0.000000 0.000000 0.000000
		CHANNELS 3 Zrotation Yrotation Xrotation
		JOINT Spine
		{
			OFFSET 0.028270 2.035590 -0.193380
			CHANNELS 3 Zrotation Yrotation Xrotation
			JOINT Spine1
			{
				OFFSET 0.056720 2.048850 -0.042750
				CHANNELS 3 Zrotation Yrotation Xrotation
				JOINT Neck
				{
					OFFSET 0.000000 0.000000 0.000000
					CHANNELS 3 Zrotation Yrotation Xrotation
					JOINT Neck1
					{
						OFFSET -0.054170 1.746240 0.172020
						CHANNELS 3 Zrotation Yrotation Xrotation
						JOINT Head
						{
							OFFSET 0.104070 1.761360 -0.123970
							CHANNELS 3 Zrotation Yrotation Xrotation
							End Site
							{
								OFFSET 0.000000 0.000000 0.000000
							}
						}
					}
				}
				JOINT LeftShoulder
				{
					OFFSET 0.000000 0.000000 0.000000
					CHANNELS 3 Zrotation Yrotation Xrotation
					JOINT LeftArm
					{
						OFFSET 3.362410 1.200890 -0.311210
						CHANNELS 3 Zrotation Yrotation Xrotation
						JOINT LeftForeArm
						{
							OFFSET 4.983000 -0.000000 -0.000000
							CHANNELS 3 Zrotation Yrotation Xrotation
							JOINT LeftHand
							{
								OFFSET 3.483560 -0.000000 -0.000000
								CHANNELS 3 Zrotation Yrotation Xrotation
								JOINT LeftFingerBase
								{
									OFFSET 0.000000 0.000000 0.000000
									CHANNELS 3 Zrotation Yrotation Xrotation
									JOINT LeftHandIndex1
									{
										OFFSET 0.715260 -0.000000 -0.000000
										CHANNELS 3 Zrotation Yrotation Xrotation
										End Site
										{
											OFFSET 0.000000 0.000000 0.000000
										}
									}
								}
								JOINT LThumb
								{
									OFFSET 0.000000 0.000000 0.000000
									CHANNELS 3 Zrotation Yrotation Xrotation
									End Site
									{
										OFFSET 0.000000 0.000000 0.000000
									}
								}
							}
						}
					}
				}
				JOINT RightShoulder
				{
					OFFSET 0.000000 0.000000 0.000000
					CHANNELS 3 Zrotation Yrotation Xrotation
					JOINT RightArm
					{
						OFFSET -3.136600 1.374050 -0.404650
						CHANNELS 3 Zrotation Yrotation Xrotation
						JOINT RightForeArm
						{
							OFFSET -5.241900 -0.000000 -0.000000
							CHANNELS 3 Zrotation Yrotation Xrotation
							JOINT RightHand
							{
								OFFSET -3.444170 -0.000000 -0.000000
								CHANNELS 3 Zrotation Yrotation Xrotation
								JOINT RightFingerBase
								{
									OFFSET 0.000000 0.000000 0.000000
									CHANNELS 3 Zrotation Yrotation Xrotation
									JOINT RightHandIndex1
									{
										OFFSET -0.622530 -0.000000 -0.000000
										CHANNELS 3 Zrotation Yrotation Xrotation
										End Site
										{
											OFFSET 0.000000 0.000000 0.000000
										}
									}
								}
								JOINT RThumb
								{
									OFFSET 0.000000 0.000000 0.000000
									CHANNELS 3 Zrotation Yrotation Xrotation
									End Site
									{
										OFFSET 0.000000 0.000000 0.000000
									}
								}
							}
						}
					}
				}
			}
		}
	}
}
MOTION
Frames: 4
Frame Time: 0.033333
-1.715161 16.335117 23.756276 3.035117 3.181266 8.096726 -4.381938 13.773484 -2.249610 -21.733021 -4.894862 -9.718696 -14.074715 -8.392349 -21.931647 1.878639 14.271820 31.062958 0.000000 0.000000 0.000000 10.371152 -9.195926 5.699429 3.093641 6.225389 -11.067436 -2.054685 -19.556197 48.685303 13.300681 -21.281633 9.774894 0.000000 0.000000 0.000000 -3.004167 -0.684049 2.264180 2.138201 -1.557742 12.827059 0.962507 -0.323812 -11.234487 5.423770 -0.822097 -8.675493 -1.996651 -0.160120 -1.222530 0.000000 0.000000 0.000000 0.114615 10.559760 9.110867 -69.292937 -3.837648 21.125958 -19.182911 -75.185529 0.517634 1.198709 -14.154593 0.254182 1.230757 -14.158132 0.000000 0.000000 0.000000 0.000000 0.000000 0.000000 0.000000 -4.614888 -12.577066 8.043800 66.040703 4.595275 18.236528 19.058789 73.301727 0.333209 -0.665387 11.698125 0.164528 -0.684099 11.700732 0.000000 0.000000 0.000000 0.000000 0.000000 0.000000 0.000000 
-1.727392 16.362147 23.955963 3.379536 3.063195 8.130169 -3.951416 13.950088 -2.457987 -22.710212 -4.855754 -9.216979 -13.451136 -7.967992 -20.407818 1.387834 12.587525 27.666660 0.000000 0.000000 0.000000 10.317632 -9.316516 6.013469 2.764276 6.092225 -10.976960 -2.145007 -19.393156 48.294627 13.633910 -22.876708 11.977528 0.000000 0.000000 0.000000 -3.084620 -0.661537 2.162977 1.766841 -1.565388 12.906583 1.035718 -0.372566 -11.148067 5.397768 -0.816864 -8.596918 -1.954335 -0.155114 -1.217559 0.000000 0.000000 0.000000 0.193982 10.450103 9.108193 -69.278020 -3.919970 21.061733 -18.788834 -75.462805 0.509860 1.313743 -14.242688 0.250101 1.348272 -14.245627 0.000000 0.000000 0.000000 0.000000 0.000000 0.000000 0.000000 -4.603239 -12.549446 7.989085 66.141666 4.593106 18.301526 18.824266 73.647556 0.336530 -0.697023 11.787274 0.166129 -0.716255 11.789838 0.000000 0.000000 0.000000 0.000000 0.000000 0.000000 0.000000 
-1.738921 16.391047 24.152764 3.702795 2.943932 8.163687 -3.576202 14.133010 -2.673778 -23.622229 -4.831031 -8.783975 -12.791045 -7.506804 -18.803501 0.975883 10.940735 24.374192 0.000000 0.000000 0.000000 10.299922 -9.440290 6.334463 2.414319 5.940965 -10.897614 -2.236168 -19.218229 47.857640 13.897670 -24.457116 14.126319 0.000000 0.000000 0.000000 -3.167802 -0.645124 2.068567 1.429035 -1.574789 12.974701 1.105036 -0.419698 -11.064095 5.377780 -0.812824 -8.529436 -1.918423 -0.150870 -1.213104 0.000000 0.000000 0.000000 0.271085 10.345248 9.106197 -69.267351 -3.997702 20.995483 -18.417400 -75.721529 0.502259 1.423003 -14.324319 0.246112 1.459925 -14.326659 0.000000 0.000000 0.000000 0.000000 0.000000 0.000000 0.000000 -4.598591 -12.520106 7.938965 66.239977 4.592002 18.359292 18.600919 73.972428 0.339591 -0.727658 11.870707 0.167602 -0.747395 11.873225 0.000000 0.000000 0.000000 0.000000 0.000000 0.000000 0.000000 
-1.748532 16.421298 24.345948 4.002568 2.823998 8.198187 -3.259386 14.322526 -2.893318 -24.460083 -4.819358 -8.421727 -12.119101 -7.011355 -17.136018 0.635981 9.359516 21.223119 0.000000 0.000000 0.000000 10.316409 -9.566696 6.661210 2.046546 5.775491 -10.830894 -2.331557 -19.032754 47.384230 14.082909 -26.000430 16.205957 0.000000 0.000000 0.000000 -3.251206 -0.635004 1.979629 1.124552 -1.586163 13.031973 1.170515 -0.465274 -10.982686 5.363783 -0.809990 -8.472980 -1.888995 -0.147370 -1.209528 0.000000 0.000000 0.000000 0.345752 10.245185 9.104770 -69.260838 -4.070769 20.927900 -18.068629 -75.962289 0.494868 1.526331 -14.399704 0.242237 1.565546 -14.401455 0.000000 0.000000 0.000000 0.000000 0.000000 0.000000 0.000000 -4.600752 -12.489022 7.893477 66.335554 4.592027 18.410117 18.389010 74.276684 0.342396 -0.757200 11.948503 0.168949 -0.777424 11.950973 0.000000 0.000000 0.000000 0.000000 0.000000 0.000000 0.000000 
